<svg width="25" height="37" viewBox="0 0 25 37" fill="none" xmlns="http://www.w3.org/2000/svg">
<path d="M11.6122 36.6364V0.272725H13.9418V36.6364H11.6122ZM17.223 12.6307C17.1283 11.589 16.7069 10.7794 15.9588 10.2017C15.2202 9.61458 14.1643 9.32102 12.7912 9.32102C11.8821 9.32102 11.1245 9.43939 10.5185 9.67614C9.91241 9.91288 9.45786 10.2396 9.15483 10.6562C8.8518 11.0634 8.69555 11.5322 8.68608 12.0625C8.66714 12.4981 8.75237 12.8816 8.94176 13.2131C9.14063 13.5445 9.42472 13.8381 9.79403 14.0938C10.1728 14.34 10.6274 14.5578 11.1577 14.7472C11.688 14.9366 12.2846 15.1023 12.9474 15.2443L15.4474 15.8125C16.8868 16.125 18.1558 16.5417 19.2543 17.0625C20.3622 17.5833 21.2902 18.2036 22.0384 18.9233C22.7959 19.643 23.3688 20.4716 23.7571 21.4091C24.1454 22.3466 24.3442 23.3977 24.3537 24.5625C24.3442 26.3996 23.8802 27.9763 22.9616 29.2926C22.0431 30.6089 20.7221 31.6174 18.9986 32.3182C17.2846 33.0189 15.2154 33.3693 12.7912 33.3693C10.3575 33.3693 8.23627 33.0047 6.42756 32.2756C4.61884 31.5464 3.21259 30.4384 2.20881 28.9517C1.20502 27.465 0.68892 25.5852 0.660511 23.3125H7.39347C7.45028 24.25 7.70123 25.0312 8.14631 25.6562C8.59138 26.2812 9.20218 26.7547 9.97869 27.0767C10.7647 27.3987 11.6738 27.5597 12.706 27.5597C13.6529 27.5597 14.4579 27.4318 15.1207 27.1761C15.7931 26.9205 16.3092 26.5653 16.669 26.1108C17.0289 25.6562 17.2135 25.1354 17.223 24.5483C17.2135 23.9991 17.0431 23.5303 16.7116 23.142C16.3802 22.7443 15.8688 22.4034 15.1776 22.1193C14.4957 21.8258 13.6245 21.5559 12.5639 21.3097L9.52415 20.5994C7.00521 20.0218 5.02131 19.089 3.57244 17.8011C2.12358 16.5038 1.40388 14.7519 1.41335 12.5455C1.40388 10.7462 1.88684 9.16951 2.86222 7.81534C3.83759 6.46117 5.18703 5.4053 6.91051 4.64773C8.634 3.89015 10.599 3.51136 12.8054 3.51136C15.0592 3.51136 17.0147 3.89489 18.6719 4.66193C20.3385 5.41951 21.6312 6.48485 22.5497 7.85795C23.4683 9.23106 23.937 10.822 23.956 12.6307H17.223Z" fill="white" fill-opacity="0.4"/>
</svg>
